<mxfile host="app.diagrams.net" modified="2020-04-28T09:22:27.043Z" agent="5.0 (Windows NT 10.0; Win64; x64) AppleWebKit/537.36 (KHTML, like Gecko) Chrome/81.0.4044.122 Safari/537.36" etag="RB9avNWelxhhtMuY7Qqp" version="13.0.2" type="github" pages="2">
  <diagram id="XcN89VJ8-E59YlMSc6sj" name="Push">
    <mxGraphModel dx="1752" dy="537" grid="1" gridSize="10" guides="1" tooltips="1" connect="1" arrows="1" fold="1" page="1" pageScale="1" pageWidth="827" pageHeight="1169" math="0" shadow="0">
      <root>
        <mxCell id="0" />
        <mxCell id="1" parent="0" />
        <mxCell id="g8y76FjbUr4OuU0xO4hQ-1" value="&lt;b style=&quot;font-size: 32px;&quot;&gt;Design&lt;/b&gt;" style="rounded=1;whiteSpace=wrap;html=1;verticalAlign=top;strokeWidth=1;strokeColor=#020912;dashed=1;fontSize=32;" vertex="1" parent="1">
          <mxGeometry x="-380" y="90" width="510" height="355" as="geometry" />
        </mxCell>
        <mxCell id="g8y76FjbUr4OuU0xO4hQ-2" value="&lt;b&gt;&lt;font style=&quot;font-size: 30px&quot;&gt;2020 Fusion&lt;/font&gt;&lt;/b&gt;" style="rounded=1;whiteSpace=wrap;html=1;verticalAlign=top;strokeWidth=3;strokeColor=#020912;" vertex="1" parent="1">
          <mxGeometry x="-350" y="195" width="440" height="230" as="geometry" />
        </mxCell>
        <mxCell id="g8y76FjbUr4OuU0xO4hQ-24" style="edgeStyle=orthogonalEdgeStyle;rounded=0;orthogonalLoop=1;jettySize=auto;html=1;exitX=1;exitY=0.5;exitDx=0;exitDy=0;entryX=0;entryY=0.5;entryDx=0;entryDy=0;" edge="1" parent="1" source="g8y76FjbUr4OuU0xO4hQ-8" target="g8y76FjbUr4OuU0xO4hQ-23">
          <mxGeometry relative="1" as="geometry" />
        </mxCell>
        <mxCell id="g8y76FjbUr4OuU0xO4hQ-7" value="Drawing" style="rounded=1;whiteSpace=wrap;html=1;fontSize=20;" vertex="1" parent="1">
          <mxGeometry x="-210" y="290" width="160" height="60" as="geometry" />
        </mxCell>
        <mxCell id="g8y76FjbUr4OuU0xO4hQ-9" value="&lt;b style=&quot;font-size: 32px;&quot;&gt;Quote&lt;/b&gt;" style="rounded=1;whiteSpace=wrap;html=1;verticalAlign=top;strokeWidth=1;strokeColor=#020912;dashed=1;fontSize=32;" vertex="1" parent="1">
          <mxGeometry x="390" y="90" width="510" height="440" as="geometry" />
        </mxCell>
        <mxCell id="g8y76FjbUr4OuU0xO4hQ-17" value="&lt;b style=&quot;font-size: 30px;&quot;&gt;C20&lt;/b&gt;" style="rounded=1;whiteSpace=wrap;html=1;verticalAlign=top;strokeWidth=3;strokeColor=#020912;fontSize=30;" vertex="1" parent="1">
          <mxGeometry x="520" y="140" width="220" height="120" as="geometry" />
        </mxCell>
        <mxCell id="g8y76FjbUr4OuU0xO4hQ-18" value="Data Store" style="shape=cylinder;whiteSpace=wrap;html=1;boundedLbl=1;backgroundOutline=1;fontSize=20;" vertex="1" parent="1">
          <mxGeometry x="-190" y="470" width="120" height="80" as="geometry" />
        </mxCell>
        <mxCell id="g8y76FjbUr4OuU0xO4hQ-21" value="&lt;b style=&quot;font-size: 30px;&quot;&gt;SAP&lt;/b&gt;" style="rounded=1;whiteSpace=wrap;html=1;verticalAlign=top;strokeWidth=3;strokeColor=#020912;fontSize=30;" vertex="1" parent="1">
          <mxGeometry x="520" y="370" width="220" height="120" as="geometry" />
        </mxCell>
        <mxCell id="g8y76FjbUr4OuU0xO4hQ-25" style="edgeStyle=orthogonalEdgeStyle;rounded=0;orthogonalLoop=1;jettySize=auto;html=1;exitX=1;exitY=0.5;exitDx=0;exitDy=0;entryX=0;entryY=0.5;entryDx=0;entryDy=0;fontSize=18;" edge="1" parent="1" source="g8y76FjbUr4OuU0xO4hQ-23" target="g8y76FjbUr4OuU0xO4hQ-17">
          <mxGeometry relative="1" as="geometry" />
        </mxCell>
        <mxCell id="g8y76FjbUr4OuU0xO4hQ-27" value="&lt;font style=&quot;font-size: 18px&quot;&gt;Dewsbury&lt;/font&gt;" style="edgeLabel;html=1;align=center;verticalAlign=middle;resizable=0;points=[];" vertex="1" connectable="0" parent="g8y76FjbUr4OuU0xO4hQ-25">
          <mxGeometry x="0.0596" y="1" relative="1" as="geometry">
            <mxPoint as="offset" />
          </mxGeometry>
        </mxCell>
        <mxCell id="g8y76FjbUr4OuU0xO4hQ-26" style="edgeStyle=orthogonalEdgeStyle;rounded=0;orthogonalLoop=1;jettySize=auto;html=1;exitX=1;exitY=0.5;exitDx=0;exitDy=0;entryX=0;entryY=0.5;entryDx=0;entryDy=0;" edge="1" parent="1" source="g8y76FjbUr4OuU0xO4hQ-23" target="g8y76FjbUr4OuU0xO4hQ-21">
          <mxGeometry relative="1" as="geometry" />
        </mxCell>
        <mxCell id="g8y76FjbUr4OuU0xO4hQ-28" value="&lt;font style=&quot;font-size: 18px&quot;&gt;Darlington&lt;/font&gt;" style="edgeLabel;html=1;align=center;verticalAlign=middle;resizable=0;points=[];" vertex="1" connectable="0" parent="g8y76FjbUr4OuU0xO4hQ-26">
          <mxGeometry x="-0.3143" y="-44" relative="1" as="geometry">
            <mxPoint x="46" y="44" as="offset" />
          </mxGeometry>
        </mxCell>
        <mxCell id="g8y76FjbUr4OuU0xO4hQ-23" value="Supply Type?" style="rhombus;whiteSpace=wrap;html=1;fontSize=18;" vertex="1" parent="1">
          <mxGeometry x="190" y="275" width="90" height="90" as="geometry" />
        </mxCell>
        <mxCell id="-5jz9G9cX4YiFV88LNi8-1" value="&lt;b&gt;&lt;font style=&quot;font-size: 18px&quot;&gt;1&lt;/font&gt;&lt;/b&gt;" style="ellipse;whiteSpace=wrap;html=1;aspect=fixed;strokeColor=#FFFFFF;fillColor=#B3B3B3;fontSize=20;" vertex="1" parent="1">
          <mxGeometry x="-190" y="380" width="30" height="30" as="geometry" />
        </mxCell>
        <mxCell id="-5jz9G9cX4YiFV88LNi8-2" style="edgeStyle=orthogonalEdgeStyle;rounded=0;orthogonalLoop=1;jettySize=auto;html=1;startArrow=classic;startFill=1;endArrow=none;endFill=0;" edge="1" parent="1">
          <mxGeometry relative="1" as="geometry">
            <mxPoint x="-150" y="470" as="sourcePoint" />
            <mxPoint x="-150" y="350" as="targetPoint" />
          </mxGeometry>
        </mxCell>
        <mxCell id="-5jz9G9cX4YiFV88LNi8-3" style="edgeStyle=orthogonalEdgeStyle;rounded=0;orthogonalLoop=1;jettySize=auto;html=1;" edge="1" parent="1">
          <mxGeometry relative="1" as="geometry">
            <mxPoint x="-107" y="471" as="sourcePoint" />
            <mxPoint x="-107" y="351" as="targetPoint" />
          </mxGeometry>
        </mxCell>
        <mxCell id="-5jz9G9cX4YiFV88LNi8-4" value="&lt;b&gt;&lt;font style=&quot;font-size: 18px&quot;&gt;2&lt;/font&gt;&lt;/b&gt;" style="ellipse;whiteSpace=wrap;html=1;aspect=fixed;strokeColor=#FFFFFF;fillColor=#B3B3B3;fontSize=20;" vertex="1" parent="1">
          <mxGeometry x="-120" y="275" width="30" height="30" as="geometry" />
        </mxCell>
        <mxCell id="-5jz9G9cX4YiFV88LNi8-5" value="&lt;b&gt;&lt;font style=&quot;font-size: 18px&quot;&gt;3&lt;/font&gt;&lt;/b&gt;" style="ellipse;whiteSpace=wrap;html=1;aspect=fixed;strokeColor=#FFFFFF;fillColor=#B3B3B3;fontSize=20;" vertex="1" parent="1">
          <mxGeometry x="190" y="260" width="30" height="30" as="geometry" />
        </mxCell>
        <mxCell id="-5jz9G9cX4YiFV88LNi8-6" value="&lt;b&gt;&lt;font style=&quot;font-size: 18px&quot;&gt;4&lt;/font&gt;&lt;/b&gt;" style="ellipse;whiteSpace=wrap;html=1;aspect=fixed;strokeColor=#FFFFFF;fillColor=#B3B3B3;fontSize=20;" vertex="1" parent="1">
          <mxGeometry x="414" y="300" width="30" height="30" as="geometry" />
        </mxCell>
        <mxCell id="g8y76FjbUr4OuU0xO4hQ-8" value="Export" style="rounded=1;whiteSpace=wrap;html=1;fontSize=18;" vertex="1" parent="1">
          <mxGeometry x="-80" y="303" width="60" height="34" as="geometry" />
        </mxCell>
      </root>
    </mxGraphModel>
  </diagram>
  <diagram name="Pull" id="wabOlndau94j7LAGCzaj">
    <mxGraphModel dx="1992" dy="537" grid="1" gridSize="10" guides="1" tooltips="1" connect="1" arrows="1" fold="1" page="1" pageScale="1" pageWidth="827" pageHeight="1169" math="0" shadow="0">
      <root>
        <mxCell id="B7QhQswIt5ThPR8r57iL-0" />
        <mxCell id="B7QhQswIt5ThPR8r57iL-1" parent="B7QhQswIt5ThPR8r57iL-0" />
        <mxCell id="B7QhQswIt5ThPR8r57iL-2" value="&lt;b&gt;Design&lt;/b&gt;" style="rounded=1;whiteSpace=wrap;html=1;verticalAlign=top;strokeWidth=1;strokeColor=#020912;dashed=1;" vertex="1" parent="B7QhQswIt5ThPR8r57iL-1">
          <mxGeometry x="-380" y="90" width="510" height="355" as="geometry" />
        </mxCell>
        <mxCell id="B7QhQswIt5ThPR8r57iL-3" value="&lt;b&gt;2020 Fusion&lt;/b&gt;" style="rounded=1;whiteSpace=wrap;html=1;verticalAlign=top;strokeWidth=3;strokeColor=#020912;" vertex="1" parent="B7QhQswIt5ThPR8r57iL-1">
          <mxGeometry x="-350" y="195" width="440" height="230" as="geometry" />
        </mxCell>
        <mxCell id="B7QhQswIt5ThPR8r57iL-4" style="edgeStyle=orthogonalEdgeStyle;rounded=0;orthogonalLoop=1;jettySize=auto;html=1;exitX=1;exitY=0.5;exitDx=0;exitDy=0;" edge="1" parent="B7QhQswIt5ThPR8r57iL-1" source="B7QhQswIt5ThPR8r57iL-5">
          <mxGeometry relative="1" as="geometry">
            <mxPoint x="180" y="320" as="targetPoint" />
          </mxGeometry>
        </mxCell>
        <mxCell id="B7QhQswIt5ThPR8r57iL-5" value="Drawing" style="rounded=1;whiteSpace=wrap;html=1;" vertex="1" parent="B7QhQswIt5ThPR8r57iL-1">
          <mxGeometry x="-210" y="290" width="160" height="60" as="geometry" />
        </mxCell>
        <mxCell id="B7QhQswIt5ThPR8r57iL-6" value="Export" style="rounded=1;whiteSpace=wrap;html=1;" vertex="1" parent="B7QhQswIt5ThPR8r57iL-1">
          <mxGeometry x="-100" y="310" width="40" height="20" as="geometry" />
        </mxCell>
        <mxCell id="B7QhQswIt5ThPR8r57iL-7" value="&lt;b&gt;Quote&lt;/b&gt;" style="rounded=1;whiteSpace=wrap;html=1;verticalAlign=top;strokeWidth=1;strokeColor=#020912;dashed=1;" vertex="1" parent="B7QhQswIt5ThPR8r57iL-1">
          <mxGeometry x="390" y="90" width="510" height="440" as="geometry" />
        </mxCell>
        <mxCell id="B7QhQswIt5ThPR8r57iL-18" style="edgeStyle=orthogonalEdgeStyle;rounded=0;orthogonalLoop=1;jettySize=auto;html=1;exitX=0;exitY=0.5;exitDx=0;exitDy=0;entryX=1;entryY=0.5;entryDx=0;entryDy=0;startArrow=classic;startFill=1;" edge="1" parent="B7QhQswIt5ThPR8r57iL-1" source="B7QhQswIt5ThPR8r57iL-9" target="B7QhQswIt5ThPR8r57iL-11">
          <mxGeometry relative="1" as="geometry" />
        </mxCell>
        <mxCell id="B7QhQswIt5ThPR8r57iL-9" value="&lt;b&gt;C20&lt;/b&gt;" style="rounded=1;whiteSpace=wrap;html=1;verticalAlign=top;strokeWidth=3;strokeColor=#020912;" vertex="1" parent="B7QhQswIt5ThPR8r57iL-1">
          <mxGeometry x="520" y="140" width="220" height="120" as="geometry" />
        </mxCell>
        <mxCell id="B7QhQswIt5ThPR8r57iL-11" value="Data Store" style="shape=cylinder;whiteSpace=wrap;html=1;boundedLbl=1;backgroundOutline=1;" vertex="1" parent="B7QhQswIt5ThPR8r57iL-1">
          <mxGeometry x="180" y="280" width="120" height="80" as="geometry" />
        </mxCell>
        <mxCell id="B7QhQswIt5ThPR8r57iL-19" style="edgeStyle=orthogonalEdgeStyle;rounded=0;orthogonalLoop=1;jettySize=auto;html=1;exitX=0;exitY=0.5;exitDx=0;exitDy=0;startArrow=classic;startFill=1;" edge="1" parent="B7QhQswIt5ThPR8r57iL-1" source="B7QhQswIt5ThPR8r57iL-12">
          <mxGeometry relative="1" as="geometry">
            <mxPoint x="300" y="320" as="targetPoint" />
            <Array as="points">
              <mxPoint x="410" y="430" />
              <mxPoint x="410" y="320" />
            </Array>
          </mxGeometry>
        </mxCell>
        <mxCell id="B7QhQswIt5ThPR8r57iL-12" value="&lt;b&gt;SAP&lt;/b&gt;" style="rounded=1;whiteSpace=wrap;html=1;verticalAlign=top;strokeWidth=3;strokeColor=#020912;" vertex="1" parent="B7QhQswIt5ThPR8r57iL-1">
          <mxGeometry x="520" y="370" width="220" height="120" as="geometry" />
        </mxCell>
        <mxCell id="B7QhQswIt5ThPR8r57iL-8" value="Import" style="rounded=1;whiteSpace=wrap;html=1;" vertex="1" parent="B7QhQswIt5ThPR8r57iL-1">
          <mxGeometry x="540" y="420" width="40" height="20" as="geometry" />
        </mxCell>
        <mxCell id="B7QhQswIt5ThPR8r57iL-20" value="Import" style="rounded=1;whiteSpace=wrap;html=1;" vertex="1" parent="B7QhQswIt5ThPR8r57iL-1">
          <mxGeometry x="540" y="190" width="40" height="20" as="geometry" />
        </mxCell>
        <mxCell id="PKTJbxyEXXJD0-x05eLH-0" value="&lt;b&gt;&lt;font style=&quot;font-size: 18px&quot;&gt;1&lt;/font&gt;&lt;/b&gt;" style="ellipse;whiteSpace=wrap;html=1;aspect=fixed;strokeColor=#FFFFFF;fillColor=#B3B3B3;fontSize=20;" vertex="1" parent="B7QhQswIt5ThPR8r57iL-1">
          <mxGeometry x="-60" y="270" width="30" height="30" as="geometry" />
        </mxCell>
        <mxCell id="PKTJbxyEXXJD0-x05eLH-1" value="&lt;b&gt;&lt;font style=&quot;font-size: 18px&quot;&gt;2&lt;/font&gt;&lt;/b&gt;" style="ellipse;whiteSpace=wrap;html=1;aspect=fixed;strokeColor=#FFFFFF;fillColor=#B3B3B3;fontSize=20;" vertex="1" parent="B7QhQswIt5ThPR8r57iL-1">
          <mxGeometry x="160" y="260" width="30" height="30" as="geometry" />
        </mxCell>
        <mxCell id="PKTJbxyEXXJD0-x05eLH-2" value="&lt;b&gt;&lt;font style=&quot;font-size: 18px&quot;&gt;3&lt;/font&gt;&lt;/b&gt;" style="ellipse;whiteSpace=wrap;html=1;aspect=fixed;strokeColor=#FFFFFF;fillColor=#B3B3B3;fontSize=20;" vertex="1" parent="B7QhQswIt5ThPR8r57iL-1">
          <mxGeometry x="540" y="280" width="30" height="30" as="geometry" />
        </mxCell>
        <mxCell id="PKTJbxyEXXJD0-x05eLH-3" value="&lt;b&gt;&lt;font style=&quot;font-size: 18px&quot;&gt;4&lt;/font&gt;&lt;/b&gt;" style="ellipse;whiteSpace=wrap;html=1;aspect=fixed;strokeColor=#FFFFFF;fillColor=#B3B3B3;fontSize=20;" vertex="1" parent="B7QhQswIt5ThPR8r57iL-1">
          <mxGeometry x="420" y="280" width="30" height="30" as="geometry" />
        </mxCell>
      </root>
    </mxGraphModel>
  </diagram>
</mxfile>
